<svg width="48" height="68" viewBox="0 0 48 68" fill="none" xmlns="http://www.w3.org/2000/svg">
<path d="M24.0007 47.0758C27.5973 47.0758 30.6752 45.7953 33.236 43.2355C35.7964 40.6758 37.0767 37.5963 37.0767 33.9999V13.0773C37.0767 9.48094 35.7974 6.40274 33.236 3.84167C30.6752 1.28118 27.5973 0 24.0007 0C20.4045 0 17.3261 1.28118 14.7652 3.84167C12.2041 6.40231 10.9238 9.48094 10.9238 13.0773V33.9999C10.9238 37.5961 12.2047 40.6758 14.7652 43.2355C17.3257 45.7953 20.4045 47.0758 24.0007 47.0758Z" fill="#939393"/>
<path d="M46.7618 26.9303C46.2456 26.4126 45.6313 26.1537 44.923 26.1537C44.2153 26.1537 43.6024 26.4126 43.0841 26.9303C42.567 27.4479 42.3082 28.0608 42.3082 28.7689V33.9999C42.3082 39.0402 40.5165 43.3512 36.9339 46.9336C33.3524 50.5162 29.0409 52.3075 24.0004 52.3075C18.9602 52.3075 14.649 50.5162 11.0663 46.9336C7.48398 43.3522 5.69297 39.0403 5.69297 33.9999V28.7689C5.69297 28.0608 5.43404 27.4479 4.91662 26.9303C4.39891 26.4126 3.78659 26.1537 3.0778 26.1537C2.36901 26.1537 1.75597 26.4126 1.23855 26.9303C0.720698 27.4479 0.461914 28.0608 0.461914 28.7689V33.9999C0.461914 40.0208 2.47149 45.2586 6.4895 49.7124C10.5077 54.1664 15.4728 56.7203 21.385 57.3737V62.7685H10.9236C10.2152 62.7685 9.60234 63.0277 9.08477 63.5454C8.56707 64.0627 8.30814 64.6759 8.30814 65.3842C8.30814 66.0915 8.56707 66.7058 9.08477 67.2231C9.60234 67.7403 10.2152 68 10.9236 68H37.0766C37.7848 68 38.3986 67.7405 38.9154 67.2231C39.4337 66.7059 39.6928 66.0916 39.6928 65.3842C39.6928 64.676 39.4337 64.0628 38.9154 63.5454C38.3987 63.0277 37.7849 62.7685 37.0766 62.7685H26.6165V57.3737C32.5277 56.7203 37.4924 54.1664 41.511 49.7124C45.5295 45.2586 47.5397 40.0208 47.5397 33.9999V28.7689C47.5397 28.0609 47.2802 27.4485 46.7618 26.9303Z" fill="#939393"/>
</svg>
