<svg width="69" height="67" viewBox="0 0 69 67" fill="none" xmlns="http://www.w3.org/2000/svg">
<path d="M46.8212 38.8383V30.0455L27.5801 48.7304C29.5544 50.0369 31.9371 50.8021 34.5003 50.8021C41.2943 50.8021 46.8212 45.4353 46.8212 38.8383Z" fill="#919191"/>
<path d="M54.3043 31.6854H51.8502C51.0622 31.6854 50.4226 32.3065 50.4226 33.0717V37.9435C50.4226 46.4687 43.2797 53.4054 34.4992 53.4054C31.1772 53.4054 28.09 52.4108 25.5346 50.7147L21.7908 54.3501C24.6724 56.4876 28.1122 57.9383 31.8453 58.3944V61.846H20.8885C20.1005 61.846 19.4609 62.4671 19.4609 63.2323V65.6138C19.4609 66.379 20.1005 67 20.8885 67H48.1114C48.8994 67 49.539 66.379 49.539 65.6138V63.2323C49.539 62.4671 48.8994 61.846 48.1114 61.846H37.1539V58.3944C47.571 57.1204 55.7312 48.1371 55.7312 37.9435V33.0717C55.7319 32.3058 55.0923 31.6854 54.3043 31.6854Z" fill="#919191"/>
<path d="M61.3664 5.33277C59.8345 3.84467 57.347 3.84467 55.8151 5.33277L46.8213 14.0659V11.9644C46.8213 5.36674 41.2944 0 34.4997 0C27.7051 0 22.1781 5.36674 22.1781 11.9644V37.9934L18.9289 41.1485C18.7026 40.1136 18.5763 39.0428 18.5763 37.9435V33.0717C18.5763 32.3065 17.9367 31.6854 17.1487 31.6854H14.6954C13.9073 31.6854 13.2678 32.3065 13.2678 33.0717V37.9435C13.2678 40.4872 13.786 42.9526 14.7111 45.244L7.63235 52.1169C6.09911 53.6057 6.09911 56.0198 7.63235 57.5086C8.39826 58.2523 9.40328 58.6245 10.4083 58.6245C11.4133 58.6245 12.4177 58.2523 13.1843 57.5086L61.3656 10.7238C62.9003 9.23497 62.9003 6.82157 61.3664 5.33277Z" fill="#919191"/>
</svg>
